<?xml version="1.0" encoding="utf-8"?>
<!-- Generator: Adobe Illustrator 22.0.1, SVG Export Plug-In . SVG Version: 6.00 Build 0)  -->
<svg version="1.1" id="Layer_1" xmlns="http://www.w3.org/2000/svg" xmlns:xlink="http://www.w3.org/1999/xlink" x="0px" y="0px"
	 viewBox="166.4 155.3 1533 400" style="enable-background:new 0 0 1864 708;" xml:space="preserve">
<style type="text/css">
	.st0{fill:#FFFFFF;}
	.st1{fill:#31313A;}
	.st2{opacity:0.8;fill:#F7931E;enable-background:new    ;}
	.st3{opacity:0.7;fill:#F7931E;enable-background:new    ;}
	.st4{opacity:0.8;fill:#FBB03B;enable-background:new    ;}
</style>
<g>
	<g>
		<polygon class="st0" points="357.3,155.3 166.4,258.2 166.4,352 166.4,416 166.4,450.3 353.3,553.2 540.2,450.3 540.2,411.4
			540.2,352 540.2,253.6 		"/>
		<g>
			<polygon class="st1" points="166.4,416 357.3,313.1 540.2,411.4 540.2,450.3 353.3,553.2 166.4,450.3 			"/>
			<polygon class="st2" points="353.3,355.2 353.3,553.2 166.4,450.3 166.4,258.2 			"/>
			<polygon class="st3" points="540.2,253.6 540.2,450.3 353.3,553.2 353.3,355.2 			"/>
			<polygon class="st4" points="166.4,258.2 357.3,155.3 540.2,253.6 540.2,352 353.3,454.9 166.4,352 			"/>
		</g>
	</g>
	<g>
		<path class="st0" d="M711,370.1c0-4.1-1.7-7.4-5-10c-3.4-2.6-7.5-4.9-12.5-6.9s-10.4-3.9-16.3-5.8c-5.9-1.9-11.3-4.2-16.3-7
			s-9.1-6.2-12.5-10.3c-3.3-4.1-5-9.4-5-15.9c0-9.1,3.7-16.8,11.1-22.9c7.4-6.1,19.1-9.2,34.9-9.2c6.2,0,12.6,0.4,19.2,1.3
			c6.6,0.9,12.3,2.1,17,3.6l-3.7,18.1c-1.3-0.6-3.1-1.3-5.4-2.1c-2.3-0.7-4.9-1.4-7.8-2c-2.9-0.6-6.1-1-9.4-1.3
			c-3.3-0.3-6.6-0.5-9.7-0.5c-17.6,0-26.5,4.8-26.5,14.5c0,3.4,1.7,6.3,5,8.7c3.3,2.4,7.5,4.5,12.6,6.5s10.5,4,16.4,6
			s11.3,4.5,16.4,7.5c5.1,2.9,9.3,6.5,12.6,10.6c3.3,4.2,5,9.4,5,15.8c0,10.3-4,18.2-12,23.9c-8,5.6-20.7,8.4-38,8.4
			c-7.8,0-15-0.7-21.5-2s-12.7-3.3-18.6-5.9l3.9-18.4c5.7,2.6,11.7,4.8,18,6.5s13,2.6,20.2,2.6C701.8,384,711,379.4,711,370.1z"/>
		<path class="st0" d="M874.9,341.7c0,9-1.3,17.1-3.8,24.4s-6.1,13.5-10.7,18.7c-4.6,5.2-10,9.3-16.4,12.1
			c-6.4,2.9-13.3,4.3-20.8,4.3c-7.3,0-14.2-1.4-20.4-4.3c-6.3-2.9-11.7-6.9-16.3-12.1s-8.1-11.5-10.7-18.7
			c-2.5-7.3-3.8-15.4-3.8-24.4s1.3-17.1,3.8-24.5c2.5-7.3,6.1-13.6,10.7-18.7c4.6-5.1,10-9.1,16.3-12s13.1-4.3,20.4-4.3
			c7.5,0,14.5,1.4,20.8,4.3c6.4,2.9,11.8,6.9,16.4,12c4.6,5.1,8.1,11.4,10.7,18.7S874.9,332.7,874.9,341.7z M854.1,341.7
			c0-12.9-2.8-23.1-8.3-30.5c-5.6-7.4-13.1-11.1-22.5-11.1c-9.3,0-16.7,3.7-22.2,11.1s-8.2,17.6-8.2,30.5c0,12.7,2.7,22.8,8.2,30.2
			c5.5,7.4,12.9,11.1,22.2,11.1c9.5,0,17-3.7,22.5-11.1C851.3,364.5,854.1,354.4,854.1,341.7z"/>
		<path class="st0" d="M1004.4,395.3c-4.4,1.1-10.2,2.4-17.5,3.7c-7.3,1.3-15.8,2-25.6,2c-8.7,0-15.8-1.3-21.6-3.8
			c-5.7-2.5-10.4-6.1-14-10.8c-3.6-4.7-6.1-10.2-7.6-16.5c-1.5-6.4-2.2-13.4-2.2-21.1v-63.9H936v59.5c0,14,2.1,24,6.2,29.9
			c4.2,5.9,11.1,8.8,20.9,8.8c2.1,0,4.3-0.1,6.5-0.2c2.2-0.2,4.3-0.4,6.2-0.6c2-0.2,3.7-0.5,5.1-0.7c1.5-0.2,2.5-0.4,2.9-0.6v-96
			h20.3v110.3H1004.4z"/>
		<path class="st0" d="M1062.7,398.5V291c16.7-5.7,33.5-8.6,50.5-8.6c5.2,0,10.2,0.2,14.9,0.6c4.7,0.4,10,1.3,15.7,2.6l-3.7,17.9
			c-5.2-1.5-9.8-2.4-13.8-2.8s-8.4-0.6-13.1-0.6c-10,0-20.1,1.4-30.4,4.2v94.3h-20.1V398.5z"/>
		<path class="st0" d="M1185.7,341.9c0-10.3,1.6-19.2,4.9-26.7s7.8-13.7,13.5-18.6s12.4-8.5,20-10.9s15.7-3.5,24.4-3.5
			c5.6,0,11.1,0.4,16.5,1.1c5.5,0.7,11.3,2.1,17.5,4l-4.7,17.4c-5.4-2-10.3-3.2-14.8-3.8c-4.5-0.6-9-0.9-13.6-0.9
			c-5.9,0-11.4,0.8-16.6,2.3c-5.2,1.6-9.8,4-13.6,7.3c-3.8,3.4-6.9,7.7-9.2,13c-2.3,5.3-3.4,11.7-3.4,19.2c0,7.2,1.1,13.3,3.2,18.5
			c2.1,5.1,5.1,9.4,8.9,12.7c3.8,3.4,8.4,5.8,13.8,7.5c5.4,1.6,11.3,2.4,17.9,2.4c5.2,0,10.2-0.3,15.1-0.9
			c4.8-0.6,10.1-1.8,15.8-3.8l2.9,16.9c-5.7,2.1-11.5,3.6-17.4,4.5s-12.2,1.3-19.1,1.3c-9.1,0-17.5-1.3-25.1-3.8
			s-14.1-6.2-19.6-11.1s-9.7-11.1-12.7-18.5C1187.2,360.3,1185.7,351.7,1185.7,341.9z"/>
		<path class="st0" d="M1374.2,282.2c15.3,0,27.2,4.8,35.5,14.3c8.3,9.6,12.5,24,12.5,43.5v7.1h-81.3c0.8,11.8,4.7,20.7,11.6,26.8
			c6.9,6.1,16.7,9.2,29.3,9.2c7.2,0,13.3-0.6,18.4-1.7s8.9-2.4,11.5-3.7l2.7,17.1c-2.5,1.3-6.9,2.7-13.2,4.2
			c-6.4,1.5-13.6,2.2-21.6,2.2c-9.8,0-18.4-1.5-25.8-4.5s-13.6-7.1-18.5-12.4c-4.9-5.2-8.6-11.5-11-18.7c-2.4-7.3-3.7-15.1-3.7-23.6
			c0-10.1,1.6-18.9,4.7-26.4s7.2-13.7,12.2-18.6c5.1-4.9,10.8-8.6,17.1-11C1361,283.4,1367.5,282.2,1374.2,282.2z M1401.7,330.6
			c0-9.6-2.5-17.3-7.6-22.9s-11.8-8.5-20.1-8.5c-4.7,0-9,0.9-12.9,2.7s-7.1,4.2-9.9,7.1s-5,6.3-6.6,10c-1.6,3.8-2.7,7.6-3.2,11.5
			L1401.7,330.6L1401.7,330.6z"/>
		<path class="st0" d="M1474.2,398.5V291c16.7-5.7,33.5-8.6,50.5-8.6c5.2,0,10.2,0.2,14.9,0.6c4.7,0.4,10,1.3,15.7,2.6l-3.7,17.9
			c-5.2-1.5-9.8-2.4-13.8-2.8s-8.4-0.6-13.1-0.6c-10,0-20.1,1.4-30.4,4.2v94.3h-20.1V398.5z"/>
		<path class="st0" d="M1597.6,419.8c1.5,0.8,3.5,1.5,6.2,2s5.2,0.7,7.5,0.7c8,0,14.2-1.8,18.7-5.3s8.6-9.3,12.4-17.3
			c-9.1-17.3-17.7-35.9-25.7-55.7c-8-19.8-14.6-39.6-19.8-59.4h22c1.6,6.5,3.6,13.6,5.8,21.2c2.2,7.6,4.7,15.4,7.5,23.4
			s5.8,16,8.9,24.1c3.2,8.1,6.6,15.8,10.2,23.1c2.6-7.5,5.1-14.9,7.3-22.3c2.3-7.3,4.4-14.7,6.4-22.2c2-7.4,3.9-15,5.9-22.8
			s4-16,6.1-24.6h21.1c-5.2,21.2-11.1,41.8-17.5,61.7c-6.4,19.9-13.3,38.4-20.7,55.3c-2.8,6.5-5.8,12.2-8.9,16.9
			c-3.2,4.7-6.7,8.7-10.4,11.8c-3.8,3.1-8,5.4-12.7,6.9s-10.1,2.2-16.2,2.2c-3.1,0-6.5-0.4-10.2-1.2c-3.7-0.8-6.2-1.5-7.5-2.2
			L1597.6,419.8z"/>
	</g>
</g>
</svg>
